<svg version="1" xmlns="http://www.w3.org/2000/svg" width="933.333" height="933.333" viewBox="0 0 700.000000 700.000000"><path d="M0 350v350h700V0H0v350zm644-103.5c0 14.1.3 18.5 1.3 18.5.6 0 8.8-2.5 18.2-5.4 9.3-3 17-5.4 17.1-5.3 1 1.4 11.4 34.9 11 35.5-.2.4-8.2 3.2-17.5 6.2-9.4 2.9-17.1 5.8-17.1 6.3s4.7 7.4 10.5 15.3 10.5 14.7 10.4 15.1c0 .5-6.8 5.7-15.2 11.7-14.1 10.2-15.2 10.8-16.4 9-.7-1-5.7-8.1-11.1-15.6l-9.9-13.7-10.8 15.2c-6 8.4-11 15.4-11.1 15.6-.5.5-30.3-21.3-30.3-22.2-.1-.5 4.6-7.4 10.4-15.3 5.8-8 10.5-14.8 10.5-15.2 0-.4-7.7-3.2-17.1-6.2-9.4-3-17.3-6-17.6-6.7-.3-.7 2.1-8.9 5.2-18.3 4.2-12.6 6.1-17 7.1-16.6 3.3 1.3 32.9 10.6 33.6 10.6.4 0 .8-8.3.8-18.5V228h38v18.5zm-508 79.2c28.7 70.4 33.7 81.8 34.6 80 .6-1.2 14.7-38.3 31.4-82.5l30.4-80.2H328v42h-21v146h21v41h-86v-41h16l-.1-65.8c0-62.1-.1-65.5-1.7-61.7-.9 2.2-16.3 40.4-34.2 85l-32.7 81h-42.7L112.3 388c-18.9-44.8-34.5-82-34.7-82.5-.3-.6-.5 27.5-.5 62.2L77 431h17v41H8v-41h21V285H8v-42l47.2.2 47.2.3 33.6 82.2zm324.8-62l-.3 20.8-11.7.3-11.8.3V431h25c35.2 0 34.3.7 34.8-25.8l.4-17.2H546v84H362v-41h24V285.1l-11.7-.3-11.8-.3-.3-20.8-.2-20.7h99l-.2 20.7z"/></svg>