<svg xmlns="http://www.w3.org/2000/svg" xmlns:xlink="http://www.w3.org/1999/xlink" width="100" height="100" viewBox="0 0 100 100"><g><g transform="translate(50 50) scale(0.69 0.69) rotate(0) translate(-50 -50)" style="fill:#000000"><svg fill="#000000" xmlns="http://www.w3.org/2000/svg" data-name="Layer 1" viewBox="0 0 64 64" x="0px" y="0px"><title>context-data-information-system-assess</title><path d="M11,20a9,9,0,1,0-9-9A9.01016,9.01016,0,0,0,11,20ZM4.0799,10A7.00456,7.00456,0,0,1,10,4.07983V6h2V4.07983A7.00456,7.00456,0,0,1,17.9201,10H16v2h1.9201A7.00448,7.00448,0,0,1,12,17.9201V16H10v1.9201A7.00448,7.00448,0,0,1,4.0799,12H6V10Z"></path><path d="M53,2a9,9,0,1,0,9,9A9.01016,9.01016,0,0,0,53,2Zm0,16a7,7,0,1,1,7-7A7.00818,7.00818,0,0,1,53,18Z"></path><path d="M11,62a9,9,0,1,0-9-9A9.01016,9.01016,0,0,0,11,62Zm0-16a7,7,0,1,1-7,7A7.00818,7.00818,0,0,1,11,46Z"></path><path d="M53,44a9,9,0,1,0,9,9A9.01016,9.01016,0,0,0,53,44Zm0,16a7,7,0,1,1,7-7A7.00818,7.00818,0,0,1,53,60Z"></path><polygon points="55.122 49.465 53 51.586 50.878 49.465 49.464 50.879 51.586 53 49.464 55.121 50.878 56.535 53 54.414 55.122 56.535 56.536 55.121 54.414 53 56.536 50.879 55.122 49.465"></polygon><path d="M31,10.58594,29.707,9.293,28.293,10.707l3,3a.99963.99963,0,0,0,1.41406,0l3-3L34.293,9.293,33,10.58594V6H31Z"></path><path d="M23,32a9,9,0,1,0,9-9A9.01016,9.01016,0,0,0,23,32Zm9-7a7,7,0,1,1-7,7A7.00818,7.00818,0,0,1,32,25Z"></path><path d="M26.269,20.07031,23.75293,18.875a1.00129,1.00129,0,0,0-1.00879.08887,16.02312,16.02312,0,0,0-3.78076,3.77929A1.00124,1.00124,0,0,0,18.875,23.752l1.19531,2.51758-.55566,1.33887-2.8291.93652A.9997.9997,0,0,0,16,29.49414v5.01172a.9997.9997,0,0,0,.68555.94922l2.8291.93652.55566,1.33887L18.875,40.24707a.99924.99924,0,0,0,.08838,1.00781,16.02931,16.02931,0,0,0,3.78027,3.78125,1.00491,1.00491,0,0,0,1.0083.08887L26.269,43.92969l1.33936.55566.93652,2.8291A.99971.99971,0,0,0,29.49414,48h5.01172a.99971.99971,0,0,0,.94922-.68555l.92187-2.78418a13.4408,13.4408,0,0,0,1.396-.58007l2.4751,1.1748a.99813.99813,0,0,0,1.0083-.08887,16.03936,16.03936,0,0,0,3.78027-3.77929,1.00124,1.00124,0,0,0,.08838-1.00879l-1.17529-2.47559a13.14012,13.14012,0,0,0,.58056-1.39551l2.78418-.92187A.9997.9997,0,0,0,48,34.50586V29.49414a.9997.9997,0,0,0-.68555-.94922l-2.78418-.92187a13.14012,13.14012,0,0,0-.58056-1.39551L45.125,23.752a1.00124,1.00124,0,0,0-.08838-1.00879,16.03936,16.03936,0,0,0-3.78027-3.77929.99615.99615,0,0,0-1.0083-.08887L37.773,20.0498a13.4408,13.4408,0,0,0-1.396-.58007l-.92187-2.78418A.99971.99971,0,0,0,34.50586,16H29.49414a.99971.99971,0,0,0-.94922.68555l-.93652,2.8291Zm2.52832,1.11621a1.00111,1.00111,0,0,0,.56592-.60937L30.21631,18h3.56738l.853,2.57715a1.00057,1.00057,0,0,0,.65723.6416,11.25674,11.25674,0,0,1,1.99462.82813,1.0004,1.0004,0,0,0,.89844.0205l2.376-1.12793a14.04186,14.04186,0,0,1,2.49756,2.49707l-1.12842,2.377a1.00089,1.00089,0,0,0,.021.89941,11.15961,11.15961,0,0,1,.82764,1.99316.99821.99821,0,0,0,.64209.65723L46,30.2168v3.5664l-2.57715.85352a.99821.99821,0,0,0-.64209.65723,11.15961,11.15961,0,0,1-.82764,1.99316,1.00089,1.00089,0,0,0-.021.89941l1.12842,2.377A14.04186,14.04186,0,0,1,40.563,43.06055l-2.376-1.12793a.99428.99428,0,0,0-.89844.0205,11.25674,11.25674,0,0,1-1.99462.82813,1.00057,1.00057,0,0,0-.65723.6416L33.78369,46H30.21631l-.853-2.57715a1.00111,1.00111,0,0,0-.56592-.60937L26.625,41.91211a.99712.99712,0,0,0-.812.02051l-2.376,1.12793a14.01527,14.01527,0,0,1-2.49756-2.498l1.12842-2.376a.9983.9983,0,0,0,.02-.8125L21.186,35.20215a.99956.99956,0,0,0-.60889-.56543L18,33.7832V30.2168l2.57715-.85352a.99956.99956,0,0,0,.60889-.56543l.90185-2.17187a.9983.9983,0,0,0-.02-.8125l-1.12842-2.377a13.99639,13.99639,0,0,1,2.498-2.49707l2.375,1.12793a1.0061,1.0061,0,0,0,.8125.02051Z"></path><rect x="28" y="29" width="4" height="2"></rect><rect x="34" y="29" width="2" height="2"></rect><rect x="27" y="33" width="2" height="2"></rect><rect x="31" y="33" width="6" height="2"></rect><path d="M33,53.41406l1.293,1.293L35.707,53.293l-3-3a.99962.99962,0,0,0-1.41406,0l-3,3L29.707,54.707,31,53.41406V58h2Z"></path><path d="M53.293,28.293l-3,3a.99962.99962,0,0,0,0,1.41406l3,3L54.707,34.293,53.41406,33H58V31H53.41406l1.293-1.293Z"></path><path d="M10.707,35.707l3-3a.99962.99962,0,0,0,0-1.41406l-3-3L9.293,29.707,10.58594,31H6v2h4.58594L9.293,34.293Z"></path><path d="M10,57c.01514,0,.03027,0,.04541-.001a.99848.99848,0,0,0,.72266-.3584l5-6-1.53614-1.28124L9.93262,54.51855,7.707,52.293,6.293,53.707l3,3A.99771.99771,0,0,0,10,57Z"></path><path d="M8.707,14.707l1.78156-1.78155a1.79209,1.79209,0,0,0,1.02282,0L14.293,15.707,15.707,14.293l-2.78161-2.78162A1.975,1.975,0,0,0,13,11a2,2,0,0,0-4,0,1.975,1.975,0,0,0,.07458.51135L7.293,13.293Z"></path><rect x="52" y="6" width="2" height="6"></rect><rect x="52" y="14" width="2" height="2"></rect><rect x="31" y="2" width="2" height="2"></rect><rect x="60" y="31" width="2" height="2"></rect><rect x="31" y="60" width="2" height="2"></rect><rect x="2" y="31" width="2" height="2"></rect></svg></g></g></svg>