<svg xmlns="http://www.w3.org/2000/svg" xmlns:xlink="http://www.w3.org/1999/xlink" width="100" height="100" viewBox="0 0 100 100"><g><g transform="translate(50 50) scale(0.69 0.69) rotate(0) translate(-50 -50)" style="fill:#000000"><svg fill="#000000" xmlns="http://www.w3.org/2000/svg" data-name="Layer 1" viewBox="0 0 64 64" x="0px" y="0px"><title>based-location-factory-hub-distribution</title><path d="M47.56934,41.9834l-1.45118-3.05664a15.624,15.624,0,0,0,.76172-1.834l3.43457-1.13672A.99969.99969,0,0,0,51,35.00684V28.99316a1.00061,1.00061,0,0,0-.68555-.94921l-3.43457-1.1377a15.77928,15.77928,0,0,0-.76172-1.833l1.45118-3.05664a.999.999,0,0,0-.08887-1.00879,19.05188,19.05188,0,0,0-4.48828-4.48828,1.00212,1.00212,0,0,0-1.00879-.08887l-3.05664,1.45118a15.77928,15.77928,0,0,0-1.833-.76172l-1.1377-3.43457A1.00061,1.00061,0,0,0,35.00684,13H28.99316a1.00061,1.00061,0,0,0-.94921.68555L26.89062,17.167l-1.77343.73633L22.0166,16.43066a1.00421,1.00421,0,0,0-1.00879.08887,19.05188,19.05188,0,0,0-4.48828,4.48828.999.999,0,0,0-.08887,1.00879l1.47266,3.10059L17.167,26.89062,13.68555,28.044A1.00061,1.00061,0,0,0,13,28.99316v6.01368a.99969.99969,0,0,0,.68555.94921L17.167,37.1084l.73633,1.77441-1.47266,3.09961a.99916.99916,0,0,0,.08789,1.00781,19.046,19.046,0,0,0,4.48926,4.49024.99945.99945,0,0,0,1.00879.08887l3.10059-1.47266,1.77343.73633L28.044,50.31445A1.00061,1.00061,0,0,0,28.99316,51h6.01368a1.00061,1.00061,0,0,0,.94921-.68555l1.1377-3.43457a16.00951,16.00951,0,0,0,1.833-.76172l3.05664,1.45118a.99736.99736,0,0,0,1.00879-.08887,19.05188,19.05188,0,0,0,4.48828-4.48828A.999.999,0,0,0,47.56934,41.9834Zm-3.46973-2.64453,1.40625,2.96191a17.05738,17.05738,0,0,1-3.20508,3.20508l-2.96191-1.40625a.99726.99726,0,0,0-.89844.02051,13.73516,13.73516,0,0,1-2.42969,1.00879.99911.99911,0,0,0-.65625.6416L34.28418,49H29.71582l-1.07031-3.22949a1.00039,1.00039,0,0,0-.56543-.60938l-2.60645-1.082a1.006,1.006,0,0,0-.8125.02051l-2.96191,1.40625a17.03386,17.03386,0,0,1-3.20508-3.20606l1.40625-2.96093a.99993.99993,0,0,0,.02051-.81153l-1.082-2.60742a.99923.99923,0,0,0-.60938-.5664L15,34.28418V29.71582l3.22949-1.07031a1.00039,1.00039,0,0,0,.60938-.56543l1.082-2.60645a1.00222,1.00222,0,0,0-.02051-.8125l-1.40625-2.96191a17.05738,17.05738,0,0,1,3.20508-3.20508l2.96191,1.40625a.99846.99846,0,0,0,.8125.02051l2.60645-1.082a1.00039,1.00039,0,0,0,.56543-.60938L29.71582,15h4.56836l1.07031,3.22949a.99645.99645,0,0,0,.65723.6416,13.70647,13.70647,0,0,1,2.42871,1.00879,1.0003,1.0003,0,0,0,.89844.02051l2.96191-1.40625a17.05738,17.05738,0,0,1,3.20508,3.20508l-1.40625,2.96191a1.0004,1.0004,0,0,0,.02051.89844,13.70647,13.70647,0,0,1,1.00879,2.42871.99645.99645,0,0,0,.6416.65723L49,29.71582v4.56836l-3.22949,1.06934a1.00136,1.00136,0,0,0-.64258.6582,13.68918,13.68918,0,0,1-1.00781,2.42871A1.0004,1.0004,0,0,0,44.09961,39.33887Z"></path><path d="M32,20A12,12,0,1,0,44,32,12.01312,12.01312,0,0,0,32,20Zm0,22A10,10,0,1,1,42,32,10.01177,10.01177,0,0,1,32,42Z"></path><path d="M32,24a5.17985,5.17985,0,0,0-4.58691,7.58789l3.68164,7.83691a1,1,0,0,0,1.81054,0l3.65723-7.7871A5.18174,5.18174,0,0,0,32,24Zm2.77637,6.73828L32,36.64844l-2.80078-5.96a3.18113,3.18113,0,1,1,5.57715.0498Z"></path><circle cx="32" cy="29" r="2"></circle><path d="M58,2a4,4,0,1,0,4,4A4.004,4.004,0,0,0,58,2Zm0,6a2,2,0,1,1,2-2A2.0026,2.0026,0,0,1,58,8Z"></path><path d="M58,54a4,4,0,1,0,4,4A4.004,4.004,0,0,0,58,54Zm0,6a2,2,0,1,1,2-2A2.0026,2.0026,0,0,1,58,60Z"></path><path d="M6,54a4,4,0,1,0,4,4A4.004,4.004,0,0,0,6,54Zm0,6a2,2,0,1,1,2-2A2.0026,2.0026,0,0,1,6,60Z"></path><path d="M6,10A4,4,0,1,0,2,6,4.004,4.004,0,0,0,6,10ZM6,4A2,2,0,1,1,4,6,2.0026,2.0026,0,0,1,6,4Z"></path><path d="M54,48H52v2.58594l-4.293-4.293L46.293,47.707,50.58594,52H48v2h5a.99943.99943,0,0,0,1-1Z"></path><path d="M16,10H11a.99943.99943,0,0,0-1,1v5h2V13.41406l4.293,4.293L17.707,16.293,13.41406,12H16Z"></path><path d="M16.293,46.293,12,50.58594V48H10v5a.99943.99943,0,0,0,1,1h5V52H13.41406l4.293-4.293Z"></path><path d="M47.707,17.707,52,13.41406V16h2V11a.99943.99943,0,0,0-1-1H48v2h2.58594l-4.293,4.293Z"></path></svg></g></g></svg>