<svg xmlns="http://www.w3.org/2000/svg" xmlns:xlink="http://www.w3.org/1999/xlink" width="100" height="100" viewBox="0 0 100 100"><g><g transform="translate(50 50) scale(0.69 0.69) rotate(0) translate(-50 -50)" style="fill:#000000"><svg fill="#000000" xmlns="http://www.w3.org/2000/svg" data-name="Layer 1" viewBox="0 0 64 64" x="0px" y="0px"><title>business-connect-talk-marketing-financial</title><path d="M47,2A15.01672,15.01672,0,0,0,32,17v2.73438l-3.86816,6.76953A1,1,0,0,0,29,28h4v5a.99974.99974,0,0,0,1,1H46v3h2V33a.99974.99974,0,0,0-1-1H35V27a.99974.99974,0,0,0-1-1H30.72314l3.145-5.50391A1.00025,1.00025,0,0,0,34,20V17a13,13,0,0,1,26,0V37h2V17A15.01672,15.01672,0,0,0,47,2Z"></path><path d="M32,46.73438V44A15,15,0,0,0,2,44V62H4V44a13,13,0,0,1,26,0v3a1.00025,1.00025,0,0,0,.13184.49609L33.27686,53H30a.99974.99974,0,0,0-1,1v5H17a.99974.99974,0,0,0-1,1v2h2V61H30a.99974.99974,0,0,0,1-1V55h4a1,1,0,0,0,.86816-1.49609Z"></path><path d="M57.314,14.37988l-1.70166-.56347q-.12523-.33691-.27685-.665l.71582-1.50684a1.00124,1.00124,0,0,0-.08838-1.00879,11.01383,11.01383,0,0,0-2.59912-2.59765A.999.999,0,0,0,52.355,7.94922L50.84863,8.665q-.32812-.15234-.66552-.27734l-.56348-1.70215A.9997.9997,0,0,0,48.67041,6H45.32959a.9997.9997,0,0,0-.94922.68555l-.57666,1.74121-.61523.25586L41.645,7.94922a1.0059,1.0059,0,0,0-1.00879.08887,10.99042,10.99042,0,0,0-2.59912,2.59863,1.00031,1.00031,0,0,0-.08789,1.00781l.73291,1.544-.25537.61523-1.74072.57617A.99951.99951,0,0,0,36,15.3291v3.34082a1.00061,1.00061,0,0,0,.68555.94922l1.74121.57715.25537.61523-.7334,1.54395a1.00124,1.00124,0,0,0,.08838,1.00879,11.01383,11.01383,0,0,0,2.59912,2.59765,1.00319,1.00319,0,0,0,1.00879.08887l1.54346-.7334.61523.25586.57666,1.74121A.9997.9997,0,0,0,45.32959,28h3.34082a.9997.9997,0,0,0,.94922-.68555l.56348-1.70215q.3369-.1245.66552-.27734l1.50635.71582a.9986.9986,0,0,0,1.00879-.08887,11.00677,11.00677,0,0,0,2.59863-2.59863.99924.99924,0,0,0,.08838-1.00781l-.71533-1.50684q.1516-.32812.27685-.665l1.70215-.56445A1.00061,1.00061,0,0,0,58,18.66992V15.3291A.99951.99951,0,0,0,57.314,14.37988ZM56,17.94824l-1.48975.49317a.99822.99822,0,0,0-.64209.65722,7.108,7.108,0,0,1-.52685,1.26953,1.001,1.001,0,0,0-.021.89942l.66309,1.39648a9.01068,9.01068,0,0,1-1.31934,1.31934l-1.396-.66309a.99929.99929,0,0,0-.89942.02051,7.16743,7.16743,0,0,1-1.27.52832,1.00056,1.00056,0,0,0-.65722.6416L47.94824,26H46.05176l-.49317-1.48926a1.00034,1.00034,0,0,0-.56543-.60937l-1.44824-.60157a1.00342,1.00342,0,0,0-.813.02051l-1.396.66309a9.03814,9.03814,0,0,1-1.31983-1.31934l.66358-1.39648a1.00021,1.00021,0,0,0,.02051-.8125l-.60108-1.44824a1.00037,1.00037,0,0,0-.60937-.56543L38,17.94824V16.05176l1.48926-.49317a.99994.99994,0,0,0,.60986-.56543l.60108-1.44824a1.00031,1.00031,0,0,0-.02051-.8125l-.66309-1.39648a8.96332,8.96332,0,0,1,1.31934-1.31934l1.396.66309a.99956.99956,0,0,0,.813.02051l1.44824-.60157a1.00034,1.00034,0,0,0,.56543-.60937L46.05176,8h1.89648l.49317,1.48926a1.00056,1.00056,0,0,0,.65722.6416,7.16743,7.16743,0,0,1,1.27.52832,1.00239,1.00239,0,0,0,.89942.02051l1.396-.66309a9.03814,9.03814,0,0,1,1.31983,1.31934l-.66358,1.39648a.99942.99942,0,0,0,.021.89942,7.108,7.108,0,0,1,.52685,1.26953.99892.99892,0,0,0,.64258.65722L56,16.05176Z"></path><path d="M19.61963,54.31445l.56348-1.70215q.3369-.1245.66552-.27734l1.50635.71582a.99634.99634,0,0,0,1.00879-.08887,11.00677,11.00677,0,0,0,2.59863-2.59863.99924.99924,0,0,0,.08838-1.00781l-.71533-1.50684q.1516-.32812.27685-.665l1.70215-.56445A1.00061,1.00061,0,0,0,28,45.66992V42.3291a.99951.99951,0,0,0-.686-.94922l-1.70166-.56347q-.12523-.33691-.27685-.665l.71582-1.50684a1.00124,1.00124,0,0,0-.08838-1.00879,11.01383,11.01383,0,0,0-2.59912-2.59765.99912.99912,0,0,0-1.00879-.08887l-1.50635.71582q-.32812-.15234-.66552-.27734l-.56348-1.70215A.9997.9997,0,0,0,18.67041,33H15.32959a.9997.9997,0,0,0-.94922.68555l-.57666,1.74121-.61523.25586-1.54346-.7334a1.00378,1.00378,0,0,0-1.00879.08887,10.99042,10.99042,0,0,0-2.59912,2.59863,1.00031,1.00031,0,0,0-.08789,1.00781l.73291,1.54395-.25537.61523L6.686,41.37988A.99951.99951,0,0,0,6,42.3291v3.34082a1.00061,1.00061,0,0,0,.68555.94922l1.74121.57715.25537.61523-.7334,1.54395a1.00124,1.00124,0,0,0,.08838,1.00879,11.01383,11.01383,0,0,0,2.59912,2.59765,1.00109,1.00109,0,0,0,1.00879.08887l1.54346-.7334.61523.25586.57666,1.74121A.9997.9997,0,0,0,15.32959,55h3.34082A.9997.9997,0,0,0,19.61963,54.31445ZM17.94824,53H16.05176l-.49317-1.48926a1.00034,1.00034,0,0,0-.56543-.60937l-1.44824-.60157a1.0074,1.0074,0,0,0-.813.02051l-1.396.66309a9.03814,9.03814,0,0,1-1.31983-1.31934l.66358-1.39648a1.00021,1.00021,0,0,0,.02051-.8125l-.60108-1.44824a1.00037,1.00037,0,0,0-.60937-.56543L8,44.94824V43.05176l1.48926-.49317a.99994.99994,0,0,0,.60986-.56543l.60108-1.44824a1.00031,1.00031,0,0,0-.02051-.8125l-.66309-1.39648a8.96332,8.96332,0,0,1,1.31934-1.31934l1.396.66309a.99961.99961,0,0,0,.813.02051l1.44824-.60157a1.00034,1.00034,0,0,0,.56543-.60937L16.05176,35h1.89648l.49317,1.48926a1.00056,1.00056,0,0,0,.65722.6416,7.16743,7.16743,0,0,1,1.27.52832,1.00233,1.00233,0,0,0,.89942.02051l1.396-.66309a9.03814,9.03814,0,0,1,1.31983,1.31934l-.66358,1.39648a.99942.99942,0,0,0,.021.89942,7.108,7.108,0,0,1,.52685,1.26953.99892.99892,0,0,0,.64258.65722L26,43.05176v1.89648l-1.48975.49317a.99822.99822,0,0,0-.64209.65722,7.108,7.108,0,0,1-.52685,1.26953,1.001,1.001,0,0,0-.021.89942l.66309,1.39648a9.01068,9.01068,0,0,1-1.31934,1.31934l-1.396-.66309a.99928.99928,0,0,0-.89942.02051,7.16743,7.16743,0,0,1-1.27.52832,1.00056,1.00056,0,0,0-.65722.6416Z"></path><path d="M47,16a1,1,0,0,1,0-2h2V12H47a3,3,0,0,0,0,6,1,1,0,0,1,0,2H45v2h2a3,3,0,0,0,0-6Z"></path><path d="M20,46a3.00328,3.00328,0,0,0-3-3,1,1,0,0,1,0-2h2V39H17a3,3,0,0,0,0,6,1,1,0,0,1,0,2H15v2h2A3.00328,3.00328,0,0,0,20,46Z"></path><path d="M52.09424,44H40.90576A2.9094,2.9094,0,0,0,38,46.90625v4.1875A2.9094,2.9094,0,0,0,40.90576,54h1.87451l-.76074,3.80371a.99986.99986,0,0,0,1.6875.90332L48.41406,54h3.68018A2.9094,2.9094,0,0,0,55,51.09375v-4.1875A2.9094,2.9094,0,0,0,52.09424,44ZM53,51.09375A.9068.9068,0,0,1,52.09424,52H48a1.00012,1.00012,0,0,0-.707.293L44.62842,54.957l.352-1.76074A1,1,0,0,0,44,52H40.90576A.9068.9068,0,0,1,40,51.09375v-4.1875A.9068.9068,0,0,1,40.90576,46H52.09424A.9068.9068,0,0,1,53,46.90625Z"></path><rect x="42" y="48" width="5" height="2"></rect><rect x="49" y="48" width="2" height="2"></rect><path d="M31,9.09375V4.90625A2.9094,2.9094,0,0,0,28.09424,2H16.90576A2.9094,2.9094,0,0,0,14,4.90625v4.1875A2.9094,2.9094,0,0,0,16.90576,12h2.626l4.70019,5.64062a.99994.99994,0,0,0,1.7544-.80468L25.18066,12h2.91358A2.9094,2.9094,0,0,0,31,9.09375ZM24,10a.99948.99948,0,0,0-.98633,1.16406l.39356,2.36231-2.63916-3.167A1.00053,1.00053,0,0,0,20,10H16.90576A.9068.9068,0,0,1,16,9.09375V4.90625A.9068.9068,0,0,1,16.90576,4H28.09424A.9068.9068,0,0,1,29,4.90625v4.1875A.9068.9068,0,0,1,28.09424,10Z"></path><rect x="22" y="6" width="5" height="2"></rect><rect x="18" y="6" width="2" height="2"></rect><rect x="60" y="48" width="2" height="2"></rect><rect x="60" y="44" width="2" height="2"></rect><rect x="60" y="40" width="2" height="2"></rect><rect x="60" y="56" width="2" height="2"></rect><rect x="60" y="52" width="2" height="2"></rect><rect x="2" y="29" width="2" height="2"></rect><rect x="2" y="25" width="2" height="2"></rect><rect x="2" y="21" width="2" height="2"></rect><rect x="2" y="17" width="2" height="2"></rect><rect x="2" y="13" width="2" height="2"></rect><rect x="2" y="9" width="2" height="2"></rect><rect x="56" y="56" width="2" height="2"></rect><rect x="2" y="5" width="2" height="2"></rect><rect x="6" y="5" width="2" height="2"></rect><rect x="10" y="5" width="2" height="2"></rect><rect x="52" y="56" width="2" height="2"></rect></svg></g></g></svg>