<svg xmlns="http://www.w3.org/2000/svg" xmlns:xlink="http://www.w3.org/1999/xlink" width="100" height="100" viewBox="0 0 100 100"><g><g transform="translate(50 50) scale(0.69 0.69) rotate(0) translate(-50 -50)" style="fill:#000000"><svg fill="#000000" xmlns="http://www.w3.org/2000/svg" data-name="Layer 1" viewBox="0 0 64 64" x="0px" y="0px"><title>applied-tool-repair-machine-instrument</title><path d="M31.041,7.7168,30.07227,11H27a.99979.99979,0,0,0-.57617,1.81689l2.49609,1.76172-.96484,3.12647a.99964.99964,0,0,0,1.5625,1.08935L32,16.89746l2.48242,1.897a.99964.99964,0,0,0,1.5625-1.08935l-.96484-3.12647,2.49609-1.76172A.99979.99979,0,0,0,37,11H33.92773L32.959,7.7168a.99989.99989,0,0,0-1.918,0ZM33.18066,13h.668l-.51465.36328a.9981.9981,0,0,0-.3789,1.11182l.25586.83105-.60352-.46142a1.00019,1.00019,0,0,0-1.21484,0l-.60352.46142.25586-.83105a.9981.9981,0,0,0-.3789-1.11182L30.15137,13h.668a.99961.99961,0,0,0,.959-.7168L32,11.53223l.22168.751A.99961.99961,0,0,0,33.18066,13Z"></path><path d="M36.57129,2.99268a10.89727,10.89727,0,0,0-4.25684-.98829l-.05664,1.999a8.92057,8.92057,0,0,1,3.48145.80762Z"></path><path d="M21,13h2a8.96024,8.96024,0,0,1,.707-3.50391l-1.8418-.77832A10.93568,10.93568,0,0,0,21,13Z"></path><path d="M38.63086,6.915a8.9607,8.9607,0,0,1,1.84863,3.06055l1.88281-.67286A10.92688,10.92688,0,0,0,40.10352,5.5625Z"></path><path d="M21.44141,16.09814a10.96672,10.96672,0,0,0,2.041,3.86426l1.54883-1.2666a8.92665,8.92665,0,0,1-1.66992-3.16113Z"></path><path d="M41.87109,17.85547a10.86853,10.86853,0,0,0,1.11036-4.228l-1.9961-.1123a8.91566,8.91566,0,0,1-.90723,3.45556Z"></path><path d="M34.78125,21.5625l.61719,1.90234a10.93378,10.93378,0,0,0,3.80468-2.15136l-1.31054-1.51075A8.941,8.941,0,0,1,34.78125,21.5625Z"></path><path d="M31.22949,21.96729a8.90179,8.90179,0,0,1-3.42871-1.00586L26.86523,22.73a10.908,10.908,0,0,0,4.19434,1.23047Z"></path><path d="M24.334,5.11182l1.39454,1.43359a8.95781,8.95781,0,0,1,3.00683-1.93506l-.72656-1.86328A10.94222,10.94222,0,0,0,24.334,5.11182Z"></path><rect x="7" y="15" width="2" height="2"></rect><rect x="7" y="11" width="2" height="2"></rect><rect x="15" y="7" width="2" height="2"></rect><rect x="11" y="7" width="2" height="2"></rect><rect x="7" y="7" width="2" height="2"></rect><rect x="55" y="15" width="2" height="2"></rect><rect x="55" y="11" width="2" height="2"></rect><rect x="47" y="7" width="2" height="2"></rect><rect x="51" y="7" width="2" height="2"></rect><rect x="55" y="7" width="2" height="2"></rect><path d="M32,37a9,9,0,1,0,9,9A9.01016,9.01016,0,0,0,32,37Zm0,16a7,7,0,1,1,7-7A7.00818,7.00818,0,0,1,32,53Z"></path><path d="M45.03613,36.74365a16.03936,16.03936,0,0,0-3.77929-3.78027.99973.99973,0,0,0-1.00879-.08838l-2.47559,1.17529a13.14012,13.14012,0,0,0-1.39551-.58056l-.92187-2.78418A.9997.9997,0,0,0,34.50586,30H29.49414a.9997.9997,0,0,0-.94922.68555l-.93652,2.82861-1.33887.55566L23.752,32.875a1.00029,1.00029,0,0,0-1.00879.08838,16.04852,16.04852,0,0,0-3.77929,3.78027A.998.998,0,0,0,18.875,37.752L20.07031,40.269l-.55566,1.33936-2.8291.93652A.99971.99971,0,0,0,16,43.49414v5.01123a.9997.9997,0,0,0,.68555.94922l2.8291.937.55566,1.33936L18.875,54.24707a.99882.99882,0,0,0,.08887,1.00879,16.00691,16.00691,0,0,0,3.78027,3.78027.99827.99827,0,0,0,1.00781.08838l2.51758-1.19482,1.33887.55566.93652,2.8291A.9997.9997,0,0,0,29.49414,62h5.01172a.9997.9997,0,0,0,.94922-.68555l.92187-2.78418a13.14012,13.14012,0,0,0,1.39551-.58056L40.24805,59.125a.99839.99839,0,0,0,1.00879-.08838,16.02312,16.02312,0,0,0,3.77929-3.78076.99882.99882,0,0,0,.08887-1.00879L43.9502,51.773a13.4044,13.4044,0,0,0,.58007-1.39649l2.78418-.92187A.9997.9997,0,0,0,48,48.50537V43.49414a.99971.99971,0,0,0-.68555-.94922l-2.78418-.92187a13.4408,13.4408,0,0,0-.58007-1.396L45.125,37.752A.998.998,0,0,0,45.03613,36.74365ZM46,44.21631V47.7832l-2.57715.85352a1.00057,1.00057,0,0,0-.6416.65723,11.25674,11.25674,0,0,1-.82813,1.99462,1.00139,1.00139,0,0,0-.0205.89893l1.12793,2.375a13.99639,13.99639,0,0,1-2.49707,2.498l-2.377-1.12842a.99768.99768,0,0,0-.89941.021,11.15961,11.15961,0,0,1-1.99316.82764.99821.99821,0,0,0-.65723.64209L33.7832,60H30.2168l-.85352-2.57715a.99956.99956,0,0,0-.56543-.60889L26.626,55.91211a1.00033,1.00033,0,0,0-.8125.02l-2.377,1.12793a13.97755,13.97755,0,0,1-2.49707-2.49756l1.12793-2.375a1.00218,1.00218,0,0,0,.02051-.8125l-.90137-2.17236a1.00111,1.00111,0,0,0-.60937-.56592L18,47.7832V44.21631l2.57715-.853a1.00111,1.00111,0,0,0,.60937-.56592l.90137-2.17236a1.001,1.001,0,0,0-.02051-.812l-1.12793-2.376a14.00979,14.00979,0,0,1,2.49707-2.49756l2.377,1.12793a.99842.99842,0,0,0,.8125.02051l2.17187-.90137a1.00034,1.00034,0,0,0,.56543-.60937L30.2168,32h3.5664l.85352,2.57715a.99821.99821,0,0,0,.65723.64209,11.15961,11.15961,0,0,1,1.99316.82764,1.00383,1.00383,0,0,0,.89941.021l2.377-1.12842A14.04186,14.04186,0,0,1,43.06055,37.437l-1.12793,2.376a1.0004,1.0004,0,0,0,.0205.89844,11.25674,11.25674,0,0,1,.82813,1.99462,1.00057,1.00057,0,0,0,.6416.65723Z"></path><path d="M34.10547,45.55273l-.791,1.582-1.34472-5.37745a.99974.99974,0,0,0-1.86426-.20459L28.38184,45H27v2h2a1.0004,1.0004,0,0,0,.89453-.55273l.791-1.582,1.34472,5.37745a.99979.99979,0,0,0,.86035.75146A1.03894,1.03894,0,0,0,33,51a1.00035,1.00035,0,0,0,.89453-.55273L35.61816,47H37V45H35A1.0004,1.0004,0,0,0,34.10547,45.55273Z"></path><path d="M56.28516,19.33545A1,1,0,0,0,55,20.294V27H52V20.68262a.99953.99953,0,0,0-1.42969-.90283A7.98711,7.98711,0,0,0,50,33.91992v20.106a4.98284,4.98284,0,0,0,2.84473,7.84326,5.19555,5.19555,0,0,0,1.15039.12988A4.9795,4.9795,0,0,0,58,54.02637V33.91992a7.99213,7.99213,0,0,0-1.71484-14.58447Zm.28515,13.0791A.99914.99914,0,0,0,56,33.31738v21.062a1.00032,1.00032,0,0,0,.24707.65821,2.97061,2.97061,0,0,1-.377,4.3081,2.99775,2.99775,0,0,1-2.584.57325,2.98393,2.98393,0,0,1-1.5332-4.88135A1.00032,1.00032,0,0,0,52,54.37939v-21.062a.99914.99914,0,0,0-.57031-.90283A5.98223,5.98223,0,0,1,50,22.54V28a.99974.99974,0,0,0,1,1h5a.99974.99974,0,0,0,1-1V21.80859a5.99028,5.99028,0,0,1-.42969,10.606Z"></path><rect x="53" y="56" width="2" height="2"></rect><path d="M8,62a6.00657,6.00657,0,0,0,6-6V42a.99974.99974,0,0,0-1-1H11V38a.99974.99974,0,0,0-1-1H9V26h1a.99974.99974,0,0,0,1-1V20a.99974.99974,0,0,0-1-1H6a.99974.99974,0,0,0-1,1v5a.99974.99974,0,0,0,1,1H7V37H6a.99974.99974,0,0,0-1,1v3H3a.99974.99974,0,0,0-1,1V56A6.00657,6.00657,0,0,0,8,62ZM7,21H9v3H7ZM7,39H9v2H7ZM4,43h8V56a4,4,0,0,1-8,0Z"></path><rect x="8" y="45" width="2" height="9"></rect><rect x="8" y="56" width="2" height="2"></rect><rect x="31" y="26" width="2" height="2"></rect></svg></g></g></svg>