<svg xmlns="http://www.w3.org/2000/svg" xmlns:xlink="http://www.w3.org/1999/xlink" width="100" height="100" viewBox="0 0 100 100"><g><g transform="translate(50 50) scale(0.69 0.69) rotate(0) translate(-50 -50)" style="fill:#000000"><svg fill="#000000" xmlns="http://www.w3.org/2000/svg" data-name="Layer 1" viewBox="0 0 64 64" x="0px" y="0px"><title>information-analysis-knowledge-data-statistic</title><path d="M18,27a9,9,0,1,0-9-9A9.00984,9.00984,0,0,0,18,27Zm0-16a7,7,0,1,1-7,7A7.00848,7.00848,0,0,1,18,11Z"></path><path d="M2.68555,21.45508l2.8291.93652.55566,1.33887L4.875,26.24707a.99916.99916,0,0,0,.08789,1.00781,16.04762,16.04762,0,0,0,3.78027,3.78125A.99922.99922,0,0,0,9.752,31.125l2.51758-1.19531,1.33887.55566.93652,2.8291A.9997.9997,0,0,0,15.49414,34h5.01172a.9997.9997,0,0,0,.94922-.68555l.92187-2.78418a13.22224,13.22224,0,0,0,1.39551-.58007l2.47559,1.1748a.99922.99922,0,0,0,1.00879-.08887,16.03523,16.03523,0,0,0,3.77929-3.77929.999.999,0,0,0,.08887-1.00879l-1.1748-2.47559a13.22224,13.22224,0,0,0,.58007-1.39551l2.78418-.92187A.9997.9997,0,0,0,34,20.50586V15.49414a.9997.9997,0,0,0-.68555-.94922l-2.78418-.92187a13.22224,13.22224,0,0,0-.58007-1.39551L31.125,9.752a.999.999,0,0,0-.08887-1.00879,16.03523,16.03523,0,0,0-3.77929-3.77929A.99922.99922,0,0,0,26.24805,4.875L23.77246,6.0498A13.22224,13.22224,0,0,0,22.377,5.46973l-.92187-2.78418A.9997.9997,0,0,0,20.50586,2H15.49414a.9997.9997,0,0,0-.94922.68555l-.93652,2.8291-1.33887.55566L9.752,4.875a.99922.99922,0,0,0-1.00879.08887A16.03523,16.03523,0,0,0,4.96387,8.74316.999.999,0,0,0,4.875,9.752l1.19531,2.51758L5.51465,13.6084l-2.8291.93652A.9997.9997,0,0,0,2,15.49414v5.01172A.9997.9997,0,0,0,2.68555,21.45508ZM4,16.2168l2.57715-.85352a1.00034,1.00034,0,0,0,.60937-.56543L8.08789,12.626a1.00218,1.00218,0,0,0-.02051-.8125l-1.12793-2.377A13.99125,13.99125,0,0,1,9.43652,6.93945l2.377,1.12793a.99456.99456,0,0,0,.8125.02051l2.17187-.90137a1.00034,1.00034,0,0,0,.56543-.60937L16.2168,4h3.5664l.85352,2.57715a.99853.99853,0,0,0,.65723.6416,11.23734,11.23734,0,0,1,1.99414.82813,1.00326,1.00326,0,0,0,.89843.0205l2.377-1.12793a13.99125,13.99125,0,0,1,2.49707,2.49707l-1.12793,2.377a1.00034,1.00034,0,0,0,.0205.89843,11.23734,11.23734,0,0,1,.82813,1.99414.99853.99853,0,0,0,.6416.65723L32,16.2168v3.5664l-2.57715.85352a.99853.99853,0,0,0-.6416.65723,11.23734,11.23734,0,0,1-.82813,1.99414,1.00034,1.00034,0,0,0-.0205.89843l1.12793,2.377a13.99125,13.99125,0,0,1-2.49707,2.49707l-2.377-1.12793a.99408.99408,0,0,0-.89843.0205,11.23734,11.23734,0,0,1-1.99414.82813.99853.99853,0,0,0-.65723.6416L19.7832,32H16.2168l-.85352-2.57715a1.00034,1.00034,0,0,0-.56543-.60937L12.626,27.91211a1.0062,1.0062,0,0,0-.8125.02051l-2.377,1.12793a14.02871,14.02871,0,0,1-2.49707-2.498l1.12793-2.376a1.00218,1.00218,0,0,0,.02051-.8125l-.90137-2.17187a1.00034,1.00034,0,0,0-.60937-.56543L4,19.7832Z"></path><path d="M61,2H24V4H60V60H11V33H9V61a.99943.99943,0,0,0,1,1H61a.99943.99943,0,0,0,1-1V3A.99943.99943,0,0,0,61,2Z"></path><path d="M14,50a.99943.99943,0,0,0-1,1v6a.99943.99943,0,0,0,1,1h4a.99943.99943,0,0,0,1-1V51a.99943.99943,0,0,0-1-1Zm3,6H15V52h2Z"></path><path d="M26,43H22a.99943.99943,0,0,0-1,1V57a.99943.99943,0,0,0,1,1h4a.99943.99943,0,0,0,1-1V44A.99943.99943,0,0,0,26,43ZM25,56H23V45h2Z"></path><path d="M30,35a.99943.99943,0,0,0-1,1V57a.99943.99943,0,0,0,1,1h4a.99943.99943,0,0,0,1-1V36a.99943.99943,0,0,0-1-1Zm3,21H31V37h2Z"></path><path d="M48,45a1.02166,1.02166,0,0,0,.22949-.02637.99886.99886,0,0,0,.71875-.65722L49.7207,42h1.2295A5.05589,5.05589,0,0,0,56,36.9502V32.0498A5.05589,5.05589,0,0,0,50.9502,27H43.0498A5.05589,5.05589,0,0,0,38,32.0498v4.9004A5.05589,5.05589,0,0,0,43.0498,42h1.53614l2.707,2.707A1.00125,1.00125,0,0,0,48,45Zm-3-5H43.0498A3.05329,3.05329,0,0,1,40,36.9502V32.0498A3.05329,3.05329,0,0,1,43.0498,29h7.9004A3.05329,3.05329,0,0,1,54,32.0498v4.9004A3.05329,3.05329,0,0,1,50.9502,40H49a.9989.9989,0,0,0-.94824.68359l-.48926,1.46485L45.707,40.293A.99928.99928,0,0,0,45,40Z"></path><rect x="42" y="31" width="6" height="2"></rect><rect x="42" y="35" width="5" height="2"></rect><rect x="50" y="31" width="2" height="2"></rect><rect x="49" y="35" width="3" height="2"></rect><path d="M37.707,25.707,43.41406,20H49a.99847.99847,0,0,0,.74707-.33594L56,12.62952V15h2V10a.99943.99943,0,0,0-1-1H52v2h2.77362l-6.22284,7H43a.99928.99928,0,0,0-.707.293l-6,6Z"></path><path d="M15.52832,22.88184a1.00016,1.00016,0,0,0,1.02637-.04981l6-4a.99995.99995,0,0,0,0-1.66406l-6-4A.99992.99992,0,0,0,15,14v8A.99972.99972,0,0,0,15.52832,22.88184ZM17,15.86816,20.19727,18,17,20.13184Z"></path><path d="M48,58h9a.99943.99943,0,0,0,1-1V52.84766A3.827,3.827,0,0,0,55.875,49.419,3.40906,3.40906,0,0,0,56,48.5a3.5,3.5,0,0,0-7,0,3.40906,3.40906,0,0,0,.125.919A3.827,3.827,0,0,0,47,52.84766V57A.99943.99943,0,0,0,48,58Zm1-5.15234a1.83753,1.83753,0,0,1,1.64648-1.82227A1.00035,1.00035,0,0,0,51.3252,49.416a1.50009,1.50009,0,1,1,2.3496,0,1.00035,1.00035,0,0,0,.67872,1.60937A1.83753,1.83753,0,0,1,56,52.84766V56H49Z"></path><rect x="41" y="10" width="2" height="2"></rect><rect x="37" y="6" width="2" height="2"></rect><rect x="37" y="10" width="2" height="2"></rect><rect x="45" y="10" width="2" height="2"></rect><rect x="41" y="6" width="2" height="2"></rect></svg></g></g></svg>